<?xml version="1.0" encoding="UTF-8"?>
<svg id="Calque_1" data-name="Calque 1" xmlns="http://www.w3.org/2000/svg" viewBox="0 0 1080 1080">
  <defs>
    <style>
      .cls-1 {
        fill: #1d1d1b;
        stroke-width: 0px;
      }
    </style>
  </defs>
  <path class="cls-1" d="m690.26,551.23c-3.14-95.31,11.21-119.43,110.78-108.65,99.56-30.21,50.8,110.92,60.22,170.66-34.95,68.49-206.14,42.19-171-62.01"/>
  <path class="cls-1" d="m299.52,449.36c130.93-67.23,140.11,201.3,26.58,197.68-131.46,57.18-159.54-238.04-26.58-197.68"/>
  <path class="cls-1" d="m213.42,805.62c-41.52-122.14,152.34-136.64,174-52.63,60.75,154.37-183.28,204.4-174,52.63"/>
  <path class="cls-1" d="m216.46,292.66c-41.52-122.14,152.34-136.64,174-52.63,60.75,154.37-183.28,204.4-174,52.63"/>
  <path class="cls-1" d="m640.64,518.04c-23.54,354.08-383.13-100.68-51.38-62.11,57.27-11.75,39.44,33.54,51.38,62.11"/>
  <path class="cls-1" d="m556.6,882.49c-149.44,69.41-153.89-207.15-3.87-169.6,87.39-20.01,88.16,210.49,3.87,169.6"/>
  <path class="cls-1" d="m559.64,369.51c-149.44,69.41-153.89-207.15-3.87-169.6,87.39-20.01,88.16,210.49,3.87,169.6"/>
  <path class="cls-1" d="m867.99,775.66c11.41,127.02-49.69,131.42-157.66,130.21-152.39-86.71,133.35-357.32,157.66-130.21"/>
  <path class="cls-1" d="m871.03,262.69c11.41,127.02-49.69,131.42-157.66,130.21-152.39-86.71,133.35-357.32,157.66-130.21"/>
</svg>